<?xml version="1.0" standalone="no"?>
<!DOCTYPE svg PUBLIC "-//W3C//DTD SVG 20010904//EN"
 "http://www.w3.org/TR/2001/REC-SVG-20010904/DTD/svg10.dtd">
<svg version="1.0" xmlns="http://www.w3.org/2000/svg"
 width="500.000000pt" height="500.000000pt" viewBox="0 0 500.000000 500.000000"
 preserveAspectRatio="xMidYMid meet">

<g transform="translate(0.000000,500.000000) scale(0.100000,-0.100000)"
fill="#000000" stroke="none">
<path d="M2292 3267 c-157 -92 -173 -104 -170 -127 3 -21 32 -41 178 -127 96
-56 184 -102 195 -103 11 0 82 36 158 79 l137 79 -2 -171 -3 -171 -135 -78
c-101 -59 -141 -78 -161 -74 -23 4 -234 122 -266 148 -9 7 -13 44 -13 118 0
118 1 116 -73 158 -21 12 -43 20 -48 17 -5 -4 -9 -86 -9 -184 l0 -177 185
-108 c102 -59 198 -113 214 -119 27 -10 42 -3 207 93 99 57 191 112 207 122
l27 19 0 232 c0 128 -4 237 -8 243 -10 15 -106 74 -121 74 -7 0 -70 -34 -141
-75 -71 -41 -138 -75 -151 -75 -22 0 -129 56 -141 74 -10 16 4 28 75 64 64 33
66 33 100 17 34 -16 36 -16 91 15 31 18 56 36 56 41 0 17 -154 99 -185 98 -19
0 -93 -37 -203 -102z"/>
<path d="M2102 1879 c-26 -13 -55 -39 -70 -62 -23 -34 -27 -51 -27 -112 0 -60
4 -77 25 -108 75 -110 241 -109 311 2 49 76 35 196 -28 253 -54 50 -143 61
-211 27z m122 -69 c50 -19 72 -110 41 -169 -17 -33 -33 -41 -84 -41 -46 0 -79
31 -88 82 -15 93 52 158 131 128z"/>
<path d="M2835 1886 c-40 -18 -80 -62 -99 -108 -74 -175 129 -339 282 -228 50
36 76 90 76 160 1 103 -72 181 -172 187 -34 2 -69 -2 -87 -11z m136 -95 c25
-25 29 -37 29 -84 0 -70 -30 -107 -87 -107 -50 0 -80 22 -94 69 -32 108 77
196 152 122z"/>
<path d="M3265 1886 c-80 -35 -126 -132 -105 -224 45 -203 331 -193 348 13 l4
55 -86 0 -86 0 0 -35 c0 -34 1 -35 40 -35 44 0 52 -16 23 -42 -28 -25 -62 -31
-94 -17 -38 15 -59 56 -59 113 0 89 86 138 152 86 l25 -19 27 28 26 27 -22 21
c-46 43 -132 56 -193 29z"/>
<path d="M1140 1705 l0 -185 45 0 45 0 0 75 0 75 60 0 60 0 0 35 0 35 -60 0
-60 0 0 40 0 40 65 0 65 0 0 35 0 35 -110 0 -110 0 0 -185z"/>
<path d="M1430 1705 l0 -185 45 0 45 0 0 185 0 185 -45 0 -45 0 0 -185z"/>
<path d="M1610 1705 l0 -185 40 0 40 0 0 118 0 117 76 -117 76 -118 44 0 44 0
0 185 0 185 -45 0 -45 0 0 -112 0 -113 -73 112 -72 113 -42 0 -43 0 0 -185z"/>
<path d="M2450 1705 l0 -185 105 0 105 0 0 35 0 34 -62 3 -63 3 -3 148 -3 147
-39 0 -40 0 0 -185z"/>
<path d="M3605 1793 l65 -98 0 -87 0 -88 45 0 45 0 0 85 0 86 58 87 c32 48 62
93 66 100 5 9 -5 12 -42 12 -49 0 -50 -1 -86 -55 -20 -30 -38 -55 -40 -55 -2
0 -20 25 -40 55 -36 54 -37 55 -86 55 l-50 0 65 -97z"/>
</g>
</svg>
