<?xml version="1.0" standalone="no"?>
<!DOCTYPE svg PUBLIC "-//W3C//DTD SVG 20010904//EN"
 "http://www.w3.org/TR/2001/REC-SVG-20010904/DTD/svg10.dtd">
<svg version="1.0" xmlns="http://www.w3.org/2000/svg"
 width="500.000000pt" height="500.000000pt" viewBox="0 0 500.000000 500.000000"
 preserveAspectRatio="xMidYMid meet">

<g transform="translate(0.000000,500.000000) scale(0.100000,-0.100000)"
fill="#000000" stroke="none">
<path d="M3365 2833 c-21 -49 -57 -134 -81 -190 l-43 -103 29 0 c24 0 31 6 46
45 l17 45 67 0 67 0 17 -45 c16 -41 21 -45 51 -45 l34 0 -35 83 c-20 45 -56
130 -81 190 -25 59 -46 107 -48 107 -1 0 -20 -39 -40 -87z m66 -110 l18 -43
-44 0 c-25 0 -45 4 -45 9 0 22 44 105 48 91 3 -8 13 -34 23 -57z"/>
<path d="M1528 2890 c-104 -55 -132 -200 -55 -287 118 -134 339 -44 325 133
-11 134 -154 215 -270 154z m159 -57 c80 -53 66 -192 -24 -229 -50 -21 -99
-10 -140 31 -28 28 -33 40 -33 82 0 114 105 176 197 116z"/>
<path d="M1960 2725 l0 -185 120 0 120 0 0 30 0 30 -90 0 -90 0 0 155 0 155
-30 0 -30 0 0 -185z"/>
<path d="M2360 2725 l0 -185 25 0 25 0 0 185 0 185 -25 0 -25 0 0 -185z"/>
<path d="M2570 2903 c0 -20 158 -374 163 -366 7 11 157 364 157 369 0 2 -15 4
-33 4 -32 0 -32 0 -77 -119 -25 -66 -47 -117 -49 -115 -3 2 -25 55 -50 117
-44 108 -47 112 -78 115 -18 2 -33 -1 -33 -5z"/>
<path d="M3040 2725 l0 -185 30 0 30 0 0 185 0 185 -30 0 -30 0 0 -185z"/>
<path d="M1883 2393 c15 -2 37 -2 50 0 12 2 0 4 -28 4 -27 0 -38 -2 -22 -4z"/>
<path d="M1818 2383 c6 -2 18 -2 25 0 6 3 1 5 -13 5 -14 0 -19 -2 -12 -5z"/>
<path d="M1735 2365 c-28 -13 -28 -14 -4 -9 l26 5 -10 -57 c-5 -32 -17 -65
-26 -73 -9 -9 -12 -13 -7 -8 21 16 24 4 21 -70 -4 -77 0 -66 11 34 5 50 7 52
47 67 23 9 30 14 15 11 -14 -3 -34 -8 -43 -11 -15 -6 -16 -2 -11 24 3 18 9 45
12 61 3 17 13 32 22 34 13 4 13 5 -3 5 -11 1 -33 -5 -50 -13z"/>
<path d="M2616 2359 c-23 -33 -20 -46 5 -18 l20 24 -6 -70 c-3 -38 -8 -99 -11
-135 l-5 -65 20 70 c11 39 22 79 26 90 5 16 4 16 -7 -3 -13 -20 -14 -16 -10
44 5 75 -7 98 -32 63z"/>
<path d="M2700 2338 c-16 -22 -30 -46 -30 -51 0 -6 14 11 30 37 32 49 57 57
52 15 -1 -13 -18 -49 -36 -79 -33 -52 -39 -77 -14 -52 17 17 45 15 52 -4 13
-35 5 -54 -31 -73 -80 -42 -114 -88 -87 -115 19 -19 18 -19 53 -2 32 17 53 46
70 97 13 41 61 91 68 72 13 -37 49 2 37 39 -5 18 -10 16 -50 -23 -42 -41 -44
-42 -44 -18 0 30 -17 49 -43 49 -18 0 -17 1 2 26 23 30 45 99 36 114 -12 20
-36 9 -65 -32z m156 -144 c-4 -9 -9 -15 -11 -12 -3 3 -3 13 1 22 4 9 9 15 11
12 3 -3 3 -13 -1 -22z m-106 -76 c0 -22 -38 -76 -65 -94 -20 -13 -28 -14 -40
-4 -20 17 -5 43 47 80 45 33 58 37 58 18z"/>
<path d="M1668 2336 c-22 -16 -23 -26 -2 -26 8 0 13 4 9 9 -3 6 3 14 12 20 10
6 14 10 8 10 -5 0 -18 -6 -27 -13z"/>
<path d="M2990 2343 c0 -6 -12 -16 -27 -22 -21 -8 -22 -10 -5 -7 20 4 22 0 22
-42 0 -29 -6 -52 -17 -64 -15 -17 -15 -18 -1 -13 14 5 17 -1 21 -37 2 -23 4 3
5 59 1 56 6 103 12 105 6 2 6 8 0 18 -6 9 -10 10 -10 3z"/>
<path d="M3033 2333 c9 -2 23 -2 30 0 6 3 -1 5 -18 5 -16 0 -22 -2 -12 -5z"/>
<path d="M2444 2315 c-4 -8 -11 -12 -17 -8 -6 3 -7 1 -3 -5 4 -7 3 -12 -2 -12
-15 0 -56 -86 -49 -103 4 -10 16 -16 29 -16 l23 2 -22 4 c-40 8 -25 55 33 109
19 18 34 34 34 38 0 12 -21 5 -26 -9z"/>
<path d="M2591 2294 c0 -11 3 -14 6 -6 3 7 2 16 -1 19 -3 4 -6 -2 -5 -13z"/>
<path d="M2905 2300 c-3 -6 1 -7 9 -4 18 7 21 14 7 14 -6 0 -13 -4 -16 -10z"/>
<path d="M2006 2278 c-8 -33 -7 -138 2 -138 4 0 7 36 8 80 1 44 0 80 -1 80 -2
0 -5 -10 -9 -22z"/>
<path d="M2580 2256 c0 -8 4 -17 9 -20 5 -4 7 3 4 14 -6 23 -13 26 -13 6z"/>
<path d="M3071 2220 c-39 -48 -51 -50 -52 -7 -2 31 -2 32 -6 3 -6 -35 10 -54
31 -37 10 8 16 9 21 1 3 -6 11 -8 16 -4 5 3 6 10 3 16 -4 5 3 23 15 39 33 44
9 35 -28 -11z"/>
<path d="M1857 2232 c-18 -20 -22 -42 -8 -42 13 0 28 23 28 43 0 21 0 21 -20
-1z"/>
<path d="M2433 2231 c13 -20 14 -28 4 -40 -11 -14 -10 -14 6 -2 15 12 20 11
40 -5 l22 -19 -18 22 c-11 12 -16 27 -11 34 5 8 3 10 -5 5 -7 -5 -21 0 -33 11
-22 18 -22 18 -5 -6z"/>
<path d="M3273 2224 c-21 -29 -21 -30 -2 -31 11 -1 17 3 13 9 -4 6 -1 14 6 18
7 4 11 13 8 21 -3 8 -12 2 -25 -17z"/>
<path d="M1923 2224 c-3 -9 -15 -20 -27 -25 -17 -7 -14 -8 11 -3 37 6 51 -10
29 -35 -9 -10 -16 -21 -16 -26 0 -5 7 0 15 11 8 10 15 14 15 7 0 -6 -7 -19
-16 -27 -8 -9 -12 -16 -7 -16 16 0 33 23 33 44 0 11 8 29 18 40 16 20 16 20 0
7 -24 -18 -55 4 -37 25 9 11 9 14 0 14 -6 0 -14 -7 -18 -16z"/>
<path d="M2081 2209 c-13 -31 -14 -32 -18 -11 -5 27 -19 28 -33 3 -15 -30 -11
-39 5 -11 14 25 14 25 15 3 0 -24 14 -31 25 -13 5 8 11 7 21 -1 11 -9 19 -8
34 6 18 16 20 16 20 2 0 -10 7 -17 15 -17 11 0 15 11 15 37 l0 37 -33 -32
c-18 -18 -36 -32 -39 -32 -4 0 -8 14 -10 31 l-3 32 -14 -34z m86 -21 c-3 -8
-6 -5 -6 6 -1 11 2 17 5 13 3 -3 4 -12 1 -19z"/>
<path d="M2207 2233 c-9 -8 -9 -43 -1 -43 4 0 13 8 20 18 12 16 13 16 14 0 0
-9 5 -20 10 -23 13 -8 40 12 40 29 0 6 -5 3 -11 -6 -14 -24 -25 -23 -32 4 -5
19 -8 20 -23 7 -16 -12 -17 -12 -11 4 7 18 5 21 -6 10z"/>
<path d="M2887 2233 c-8 -7 -9 -53 -2 -53 7 0 45 39 45 47 0 3 -10 -2 -21 -13
-21 -19 -22 -19 -15 4 7 22 5 28 -7 15z"/>
<path d="M3170 2203 c-22 -56 -23 -61 -6 -33 8 14 15 21 16 16 0 -5 8 -2 18 7
14 13 21 14 30 5 8 -8 9 -5 5 11 -7 26 -12 26 -30 4 -13 -17 -14 -16 -10 5 8
35 -8 26 -23 -15z"/>
<path d="M3099 2203 c-12 -14 -12 -15 0 -9 10 6 12 4 8 -10 -13 -44 -17 -100
-8 -113 10 -15 31 -7 31 12 0 7 -4 6 -10 -3 -5 -8 -10 -10 -11 -5 -3 25 3 88
11 115 10 33 0 39 -21 13z"/>
<path d="M1258 2203 c61 -2 163 -2 225 0 61 1 11 3 -113 3 -124 0 -174 -2
-112 -3z"/>
<path d="M3518 2193 c61 -2 163 -2 225 0 61 1 11 3 -113 3 -124 0 -174 -2
-112 -3z"/>
<path d="M3136 2125 c-9 -26 -7 -32 5 -12 6 10 9 21 6 23 -2 3 -7 -2 -11 -11z"/>
</g>
</svg>
